<?xml version="1.0" encoding="UTF-8" standalone="no"?>
<svg
   xmlns:dc="http://purl.org/dc/elements/1.1/"
   xmlns:cc="http://creativecommons.org/ns#"
   xmlns:rdf="http://www.w3.org/1999/02/22-rdf-syntax-ns#"
   xmlns:svg="http://www.w3.org/2000/svg"
   xmlns="http://www.w3.org/2000/svg"
   viewBox="0 0 1052.3621 744.09424"
   height="744.09424"
   width="1052.3621"
   xml:space="preserve"
   version="1.1"
   id="svg2"><metadata
     id="metadata8"><rdf:RDF><cc:Work
         rdf:about=""><dc:format>image/svg+xml</dc:format><dc:type
           rdf:resource="http://purl.org/dc/dcmitype/StillImage" /></cc:Work></rdf:RDF></metadata><defs
     id="defs6"><clipPath
       id="clipPath12"
       clipPathUnits="userSpaceOnUse"><path
         id="path14"
         d="m -123,123.61426 841.88965,0 0,595.27539 -841.88965,0 0,-595.27539 z" /></clipPath></defs><g
     clip-path="url(#clipPath12)"
     transform="matrix(1.25,0,0,-1.25,153.75,898.61206)"
     id="g10"><path
       id="path16"
       style="fill:#110070;fill-opacity:1;fill-rule:nonzero;stroke:none"
       d="m 152.62695,447.73145 4.59375,0 c 10.56348,0.11914 12.11133,-7.61133 12.11133,-14.56641 0,-6.94336 -1.54785,-14.67871 -12.11133,-14.55371 l -4.59375,0 0,29.12012 m -8.90136,-36.37305 14.1289,0 c 12.91114,-0.12207 20.95703,6.64941 20.95703,21.80664 0,15.17187 -8.04589,21.9375 -20.95703,21.82324 l -14.1289,0 0,-43.62988 z" /><path
       id="path18"
       style="fill:#110070;fill-opacity:1;fill-rule:nonzero;stroke:none"
       d="m 202.64258,449.12207 c 8.7793,0 10.44043,-8.45508 10.44043,-15.95703 0,-7.49024 -1.66113,-15.95117 -10.44043,-15.95117 -8.79102,0 -10.45996,8.46093 -10.45996,15.95117 0,7.50195 1.66894,15.95703 10.45996,15.95703 m 0,-38.6748 c 13.71875,0 19.91504,9.85253 19.91504,22.71777 0,12.87695 -6.19629,22.72559 -19.91504,22.72559 -13.72949,0 -19.93945,-9.84864 -19.93945,-22.72559 0,-12.86524 6.20996,-22.71777 19.93945,-22.71777 z" /><path
       id="path20"
       style="fill:#110070;fill-opacity:1;fill-rule:nonzero;stroke:none"
       d="m 252.5,411.3584 -16.35742,36.25586 -0.11914,-0.12207 0,-36.13379 -8.33008,0 0,43.62988 13.21777,0 15.78516,-34.32519 0.11328,0.11914 0,34.20605 8.3291,0 0,-43.62988 -12.63867,0 z" /><path
       id="path22"
       style="fill:#110070;fill-opacity:1;fill-rule:nonzero;stroke:none"
       d="m 290.33008,427.375 0,7.25293 16.99609,0 0,-21.81738 c -3.04492,-1.02344 -6.09179,-1.63086 -9.30176,-1.93262 -2.00683,-0.18652 -4.07421,-0.43066 -9.52636,-0.43066 -8.2168,0 -19.46875,5.3789 -19.46875,22.71777 0,17.3418 11.25195,22.72559 19.46875,22.72559 11.99023,0 19.39941,-3.80958 19.46484,-14.2002 l -9.47851,0 c 0,5.55664 -3.45118,7.43164 -8.32618,7.43164 -7.86914,0 -11.65429,-6.10352 -11.65429,-15.95703 0,-9.8418 3.78515,-15.95117 11.65429,-15.95117 3.55957,0 5.91211,0.4873 8.26953,0.97265 l 0,9.18848 -8.09765,0 z" /><path
       id="path24"
       style="fill:#110070;fill-opacity:1;fill-rule:nonzero;stroke:none"
       d="m 325.65723,436.12793 0.11035,0 13.77832,18.86035 10.39453,0 -15.2168,-19.52148 16.53907,-24.1084 -11.08204,0 -14.41308,22.2334 -0.11035,0 0,-22.2334 -8.90528,0 0,43.62988 8.90528,0 0,-18.86035 z" /><path
       id="path26"
       style="fill:#110070;fill-opacity:1;fill-rule:nonzero;stroke:none"
       d="m 388.71973,454.98828 0,-27.3164 c 0,-11.59278 -7.92383,-17.22461 -17.97657,-17.22461 -10.04589,0 -17.97168,5.63183 -17.97168,17.22461 l 0,27.3164 8.9004,0 0,-23.68848 c 0,-7.37011 0.34765,-14.08593 9.07128,-14.08593 8.7334,0 9.07813,6.71582 9.07813,14.08593 l 0,23.68848 8.89844,0 z" /><path
       id="path28"
       style="fill:#110070;fill-opacity:1;fill-rule:nonzero;stroke:none"
       d="m 404.29004,436.12793 0.12305,0 13.77343,18.86035 10.38965,0 -15.21387,-19.52148 16.53418,-24.1084 -11.07617,0 -14.40722,22.2334 -0.12305,0 0,-22.2334 -8.89941,0 0,43.62988 8.89941,0 0,-18.86035 z" /><path
       id="path30"
       style="fill:#110070;fill-opacity:1;fill-rule:nonzero;stroke:none"
       d="m 452.39063,424.1084 c 0.10644,-6.16113 3.49804,-8.46094 9.06738,-8.46094 4.70312,0 10.44824,1.45508 10.44824,7.55567 0,4.22656 -3.31836,5.97753 -6.77539,6.70703 -6.83008,1.56445 -18.20313,3.20312 -18.20313,12.98828 0,9.47851 8.21094,12.99219 15.9629,12.99219 7.06542,0 14.01074,-3.3252 14.01074,-11.78907 l -6.02735,0 c -0.22558,4.89942 -4.13379,6.58692 -8.26367,6.58692 -4.07715,0 -9.64746,-1.56641 -9.64746,-6.75977 0,-4.96289 3.3291,-5.26172 6.94531,-6.46484 7.63575,-2.59864 18.03028,-2.59864 18.03028,-13.59766 0,-9.91308 -8.43653,-13.41894 -16.82325,-13.41894 -8.67382,0 -14.99218,3.86425 -14.75781,13.66113 l 6.03321,0 z" /><path
       id="path32"
       style="fill:#110070;fill-opacity:1;fill-rule:nonzero;stroke:none"
       d="m 494.12402,449.78711 -13.89746,0 0,5.20117 33.54492,0 0,-5.20117 -13.89746,0 0,-38.42871 -5.75,0 0,38.42871 z" /><path
       id="path34"
       style="fill:#110070;fill-opacity:1;fill-rule:nonzero;stroke:none"
       d="m 517.67188,411.3584 0,43.62988 26.00781,0 0,-5.20117 -20.26953,0 0,-13.59668 19.29394,0 0,-5.19043 -19.29394,0 0,-14.44531 20.71777,0 0,-5.19629 -26.45605,0 z" /><path
       id="path36"
       style="fill:#110070;fill-opacity:1;fill-rule:nonzero;stroke:none"
       d="m 551.60254,411.3584 0,43.62988 26.01074,0 0,-5.20117 -20.26953,0 0,-13.59668 19.29004,0 0,-5.19043 -19.29004,0 0,-14.44531 20.72754,0 0,-5.19629 -26.46875,0 z" /><path
       id="path38"
       style="fill:#110070;fill-opacity:1;fill-rule:nonzero;stroke:none"
       d="m 586.56738,411.3584 0,43.62988 5.74121,0 0,-38.43359 19.29981,0 0,-5.19629 -25.04102,0 z" /><path
       id="path40"
       style="fill:#110070;fill-opacity:1;fill-rule:nonzero;stroke:none"
       d="m 124.05566,401.26172 -29.68652,32.19433 29.68652,32.05665 -26.68945,0 -30.09277,-32.08594 29.62597,-32.16504 27.15625,0 z" /><path
       id="path42"
       style="fill:#110070;fill-opacity:1;fill-rule:nonzero;stroke:none"
       d="m 20.3623,465.50293 0,0.01 -22.91308,0 0,-18.98047 22.91308,0 0,0.0332 c 6.98633,-0.16797 13.10352,-5.9873 13.10352,-13.14258 0,-6.93457 -5.74707,-12.59961 -12.42871,-13.10449 l -6.8252,0 0,19.49707 -16.73046,0 -0.03223,-38.47754 23.62109,0 0.0068,0.0166 c 16.9209,0.5459 30.96875,14.6875 30.96875,32.06836 0,17.62403 -14.42774,31.91797 -31.6836,32.08008 z" /><path
       id="path44"
       style="fill:#ff0000;fill-opacity:1;fill-rule:nonzero;stroke:none"
       d="m 51.54297,451.54395 11.49219,-12.14063 36.29004,38.53125 -23.13575,0 -24.64648,-26.39062 z" /><path
       id="path46"
       style="fill:#ff0000;fill-opacity:1;fill-rule:nonzero;stroke:none"
       d="m 75.32813,414.14551 -11.57227,12.45801 -35.79199,-38.20704 23.24023,0 24.12403,25.74903 z" /></g></svg>